<?xml version="1.0" encoding="UTF-8" standalone="no"?>
<svg width="221px" height="130px" viewBox="0 0 221 130" version="1.1" xmlns="http://www.w3.org/2000/svg" xmlns:xlink="http://www.w3.org/1999/xlink" xmlns:sketch="http://www.bohemiancoding.com/sketch/ns">
    <defs></defs>
    <g id="Page-1" stroke="none" stroke-width="1" fill="#3C3E42" fill-rule="evenodd" sketch:type="MSPage">
        <g id="Red-Particles" sketch:type="MSArtboardGroup" transform="translate(-283.000000, -220.000000)" fill="#3B3E42">
            <g id="EL" sketch:type="MSLayerGroup" transform="translate(283.000000, 221.000000)">
                <path d="M143.34,0 C144.660007,0 145.949994,0.0299997 147.21,0.09 C148.470006,0.1500003 149.399997,0.5999958 150,1.44 C150.600003,2.2800042 150.9,3.3899931 150.9,4.77 L150.9,9.18 L150.9,25.56 L150.9,80.1 L150.9,90.72 C150.9,91.6800048 151.11,99.5699961 151.17,100.35 C151.23,101.130004 151.379999,101.819997 151.62,102.42 C152.460004,103.980008 154.139987,104.76 156.66,104.76 L164.04,104.76 L205.96,104.76 C206.920005,104.76 208.119993,104.73 209.56,104.67 C211.000007,104.61 212.379993,104.61 213.7,104.67 C215.020007,104.73 216.249994,104.879999 217.39,105.12 C218.530006,105.360001 219.279998,105.719998 219.64,106.2 C220.240003,106.920004 220.54,107.819995 220.54,108.9 L220.54,112.32 L220.54,120.6 C220.54,121.560005 220.57,122.459996 220.63,123.3 C220.69,124.140004 220.600001,124.859997 220.36,125.46 C219.879998,126.420005 219.280004,127.079998 218.56,127.44 C217.959997,127.920002 217.060006,128.16 215.86,128.16 L212.44,128.16 L199.66,128.16 L143.88,128.16 L130.92,128.16 C129.239992,128.16 127.770006,128.070001 126.51,127.89 C125.249994,127.709999 124.320003,127.140005 123.72,126.18 C123.239998,125.459996 123,124.530006 123,123.39 L123,120.06 L123,107.46 L123,59.76 L123,19.08 L123,7.74 C123,6.6599946 123.03,5.5800054 123.09,4.5 C123.15,3.4199946 123.359998,2.580003 123.72,1.98 C124.200002,1.1399958 125.159993,0.5400018 126.6,0.18 C126.840001,0.0599994 127.079999,0.0299997 127.32,0.09 C127.560001,0.1500003 127.799999,0.1200006 128.04,0 L143.34,0 Z" id="L" sketch:type="MSShapeGroup"></path>
                <path d="M72.6,-0.34 L88.26,-0.34 C89.7000072,-0.34 91.0799934,-0.2800006 92.4,-0.16 C93.7200066,-0.0399994 94.679997,0.4399958 95.28,1.28 C95.5200012,1.6400018 95.6699997,2.0599976 95.73,2.54 C95.7900003,3.0200024 95.9399988,3.4999976 96.18,3.98 L96.18,5.96 C96.3000006,6.8000042 96.3300003,7.6999952 96.27,8.66 C96.2099997,9.6200048 96.18,10.5199958 96.18,11.36 C96.18,12.3200048 96.2099997,13.2499955 96.27,14.15 C96.3300003,15.0500045 96.3000006,15.9199958 96.18,16.76 C96.0599994,17.360003 96,18.259994 96,19.46 C95.6399982,20.9000072 95.0400042,21.8599976 94.2,22.34 C93.4799964,22.8200024 92.5800054,23.06 91.5,23.06 L88.08,23.06 L75.66,23.06 L43.08,23.06 C42.1199952,23.06 41.0100063,23.0300003 39.75,22.97 C38.4899937,22.9099997 37.2300063,22.9099997 35.97,22.97 C34.7099937,23.0300003 33.5400054,23.1499991 32.46,23.33 C31.3799946,23.5100009 30.6000024,23.7799982 30.12,24.14 C29.2799958,24.740003 28.7700009,25.6099943 28.59,26.75 C28.4099991,27.8900057 28.32,29.1799928 28.32,30.62 L28.32,40.88 L28.32,46.1 C28.5600012,47.0600048 28.7999988,47.8699967 29.04,48.53 C29.2800012,49.1900033 29.699997,49.6999982 30.3,50.06 C31.0200036,50.5400024 31.8599952,50.8099997 32.82,50.87 C33.7800048,50.9300003 34.7999946,50.96 35.88,50.96 L45.6,50.96 L76.56,50.96 C77.4000042,50.96 78.4499937,50.9300003 79.71,50.87 C80.9700063,50.8099997 82.199994,50.8099997 83.4,50.87 C84.600006,50.9300003 85.7099949,51.0199994 86.73,51.14 C87.7500051,51.2600006 88.4999976,51.4999982 88.98,51.86 C89.580003,52.2200018 89.9999988,52.9399946 90.24,54.02 C90.4800012,55.1000054 90.6299997,56.2699937 90.69,57.53 C90.7500003,58.7900063 90.7500003,60.0799934 90.69,61.4 C90.6299997,62.7200066 90.6,63.8599952 90.6,64.82 L90.6,67.34 C90.6,68.1800042 90.4800012,68.899997 90.24,69.5 C89.9999988,70.4600048 89.5200036,71.239997 88.8,71.84 C88.199997,72.2000018 87.3900051,72.4399994 86.37,72.56 C85.3499949,72.6800006 84.2100063,72.74 82.95,72.74 C81.6899937,72.74 80.4300063,72.7100003 79.17,72.65 C77.9099937,72.5899997 76.8600042,72.56 76.02,72.56 L40.92,72.56 C39.4799928,72.56 38.1000066,72.5300003 36.78,72.47 C35.4599934,72.4099997 34.2300057,72.4699991 33.09,72.65 C31.9499943,72.8300009 30.9900039,73.1899973 30.21,73.73 C29.4299961,74.2700027 28.8600018,75.0799946 28.5,76.16 C28.3799994,76.760003 28.32,77.3899967 28.32,78.05 L28.32,79.94 L28.32,86.78 L28.32,96.86 C28.32,98.3000072 28.4099991,99.5899943 28.59,100.73 C28.7700009,101.870006 29.2799958,102.739997 30.12,103.34 C30.4800018,103.700002 30.9299973,103.91 31.47,103.97 C32.0100027,104.03 32.579997,104.179999 33.18,104.42 L34.98,104.42 C35.580003,104.540001 36.2399964,104.57 36.96,104.51 C37.6800036,104.45 38.339997,104.42 38.94,104.42 L46.5,104.42 L80.34,104.42 L89.88,104.42 L92.67,104.42 C93.5700045,104.42 94.3799964,104.599998 95.1,104.96 C96.0600048,105.320002 96.7199982,105.979995 97.08,106.94 C97.3200012,107.540003 97.4699997,108.259996 97.53,109.1 C97.5900003,109.940004 97.62,110.839995 97.62,111.8 L97.62,120.08 C97.62,121.520007 97.5600006,122.869994 97.44,124.13 C97.3199994,125.390006 96.7800048,126.319997 95.82,126.92 C95.0999964,127.520003 94.1700057,127.82 93.03,127.82 L89.34,127.82 L75.84,127.82 L22.56,127.82 L8.34,127.82 C6.6599916,127.82 5.1900063,127.730001 3.93,127.55 C2.6699937,127.369999 1.740003,126.800005 1.14,125.84 C0.6599976,125.119996 0.42,124.190006 0.42,123.05 L0.42,119.72 L0.42,106.76 L0.42,57.8 L0.42,18.56 L0.42,7.4 L0.42,4.16 C0.42,3.0799946 0.6599976,2.240003 1.14,1.64 C1.6200024,0.7999958 2.5199934,0.2000018 3.84,-0.16 C4.0800012,-0.2800006 4.3199988,-0.3100003 4.56,-0.25 C4.8000012,-0.1899997 5.0399988,-0.2199994 5.28,-0.34 L72.6,-0.34 Z" id="E-Shape" sketch:type="MSShapeGroup"></path>
            </g>
        </g>
    </g>
</svg>
