<?xml version="1.0" encoding="utf-8"?>
<!-- Generator: Adobe Illustrator 14.0.0, SVG Export Plug-In . SVG Version: 6.00 Build 43363)  -->
<!DOCTYPE svg PUBLIC "-//W3C//DTD SVG 1.1//EN" "http://www.w3.org/Graphics/SVG/1.1/DTD/svg11.dtd">
<svg version="1.1" id="Layer_1" xmlns="http://www.w3.org/2000/svg" xmlns:xlink="http://www.w3.org/1999/xlink" x="73px" y="73px"
	 width="146px" height="145.855px" viewBox="0 0 146 145.855" enable-background="new 0 0 146 145.855" xml:space="preserve">
<g>
	<g>
		<g>
			<g>
				<path fill="#59888C" d="M11,72.927c-0.74,32.082,27.129,61.276,59.211,61.853c32.015,2.301,62.387-24.278,64.504-56.275
					c1.407,3.722,2.722,7.772,3.39,12.004c2.872-3.276,5.266-6.998,7.566-11.026c-1.598,18.519-10.67,36.229-24.693,48.38
					c-13.917,12.29-32.736,18.831-51.256,17.907c-18.553-0.707-36.683-8.967-49.449-22.435C7.377,109.981-0.037,91.501,0,72.927
					c1.993-4.221,4.024-8.127,6.575-11.66C7.637,65.43,9.326,69.335,11,72.927L11,72.927L11,72.927z"/>
			</g>
			<g>
				<line fill="#FCFFB0" x1="135" y1="72.928" x2="135" y2="72.928"/>
				<line fill="#FCFFB0" x1="135" y1="72.928" x2="135" y2="72.928"/>
				<path fill="#FCFFB0" d="M135,72.928c0.739-32.082-27.129-61.275-59.211-61.852C43.773,8.774,13.402,35.353,11.285,67.35
					c-1.408-3.722-2.722-7.772-3.39-12.004c-2.872,3.277-5.265,6.999-7.566,11.027c1.598-18.519,10.67-36.228,24.694-48.38
					C38.939,5.704,57.758-0.838,76.277,0.086c18.554,0.707,36.684,8.966,49.449,22.434C138.623,35.874,146.037,54.354,146,72.928"/>
			</g>
			<path fill="#FCFFB0" d="M146,72.928c-1.992,4.221-4.024,8.127-6.574,11.66c-1.062-4.163-2.752-8.068-4.426-11.66"/>
		</g>
	</g>
</g>
</svg>
