<?xml version="1.0" encoding="UTF-8"?>

<!DOCTYPE svg PUBLIC '-//W3C//DTD SVG 1.0//EN' 'http://www.w3.org/TR/2001/REC-SVG-20010904/DTD/svg10.dtd'>
<svg xmlns:xlink="http://www.w3.org/1999/xlink" style="fill-opacity:1; color-rendering:auto; color-interpolation:auto; stroke:black; text-rendering:auto; stroke-linecap:square; stroke-miterlimit:10; stroke-opacity:1; shape-rendering:auto; fill:black; stroke-dasharray:none; font-weight:normal; stroke-width:1; font-family:&apos;Dialog&apos;; font-style:normal; stroke-linejoin:miter; font-size:12; stroke-dashoffset:0; image-rendering:auto;" xmlns="http://www.w3.org/2000/svg">
  <!--Generated by the Batik Graphics2D SVG Generator-->
  <defs id="genericDefs" />
  <g>
    <g style="stroke-linecap:round; fill:rgb(204,204,204); text-rendering:geometricPrecision; image-rendering:optimizeSpeed; shape-rendering:crispEdges; stroke:rgb(204,204,204);">
      <rect x="0" y="0" width="600" style="stroke:none;" height="400" />
    </g>
    <g style="text-rendering:geometricPrecision; shape-rendering:crispEdges; stroke-linecap:round; image-rendering:optimizeSpeed;">
      <rect x="0" y="0" width="600" style="stroke:none;" height="400" />
    </g>
    <g style="text-rendering:optimizeLegibility; stroke-width:2; stroke-linecap:round; image-rendering:optimizeQuality;">
      <rect x="0" y="0" width="600" style="stroke:none;" height="400" />
    </g>
    <g style="stroke-linecap:round; fill:white; text-rendering:optimizeLegibility; image-rendering:optimizeQuality; stroke:white; stroke-width:2;">
      <path d="M0 0 C0 0 0 0 0 0" style="fill:none;" />
      <path d="M0 0 C0 0 0 900 0 900" style="fill:none;" />
      <path d="M0 900 C0 900 0 900 0 900" style="fill:none;" />
      <path d="M0 900 C0 900 0 0 0 0" style="fill:none;" />
      <path d="M0 0 C0 0 0 900 0 900" style="fill:none;" />
      <path d="M0 900 C0 900 0 900 0 900" style="fill:none;" />
      <path d="M0 900 C276.48 900 138.24 0 414.72 0" style="fill:none;" />
      <path d="M414.72 0 C423.552 0 419.136 290 427.968 290" style="fill:none;" />
      <path d="M427.968 290 C450.16 290 439.064 290 461.256 290" style="fill:none;" />
      <path d="M461.256 290 C461.32 290 461.288 260 461.352 260" style="fill:none;" />
      <path d="M461.352 260 C484.664 260 473.008 260 496.32 260" style="fill:none;" />
      <path d="M496.32 260 C496.56 260 496.44 280 496.68 280" style="fill:none;" />
      <path d="M496.68 280 C519 280 507.84 280 530.16 280" style="fill:none;" />
      <path d="M530.16 280 C530.224 280 530.192 290 530.256 290" style="fill:none;" />
      <path d="M530.256 290 C553.264 290 541.76 290 564.768 290" style="fill:none;" />
      <path d="M564.768 290 C565.456 290 565.112 290 565.8 290" style="fill:none;" />
      <path d="M565.8 290 C588.632 290 577.216 290 600.048 290" style="fill:none;" />
      <path d="M600.048 290 C600.112 290 600.08 260 600.144 260" style="fill:none;" />
      <path d="M600.144 260 C623.168 260 611.656 260 634.68 260" style="fill:none;" />
      <path d="M634.68 260 C634.744 260 634.712 280 634.776 280" style="fill:none;" />
      <path d="M634.776 280 C657.56 280 646.168 280 668.952 280" style="fill:none;" />
      <path d="M668.952 280 C669.0161 280 668.984 290 669.048 290" style="fill:none;" />
      <path d="M669.048 290 C692.168 290 680.608 290 703.728 290" style="fill:none;" />
      <path d="M703.728 290 C704.2401 290 703.984 290 704.496 290" style="fill:none;" />
      <path d="M704.496 290 C727.376 290 715.936 290 738.816 290" style="fill:none;" />
      <path d="M738.816 290 C738.88 290 738.848 260 738.912 260" style="fill:none;" />
      <path d="M738.912 260 C761.792 260 750.352 260 773.232 260" style="fill:none;" />
      <path d="M773.232 260 C773.296 260 773.264 280 773.328 280" style="fill:none;" />
      <path d="M773.328 280 C795.76 280 784.544 280 806.976 280" style="fill:none;" />
      <path d="M806.976 280 C807.04 280 807.008 290 807.072 290" style="fill:none;" />
      <path d="M807.072 290 C829.024 290 818.048 290 840 290" style="fill:none;" />
      <path d="M840 290 C840.64 290 840.32 0 840.96 0" style="fill:none;" />
      <path d="M840.96 0 C841.568 0 841.264 290 841.872 290" style="fill:none;" />
      <path d="M841.872 290 C865.088 290 853.48 290 876.696 290" style="fill:none;" />
      <path d="M876.696 290 C876.76 290 876.728 260 876.792 260" style="fill:none;" />
      <path d="M876.792 260 C899.992 260 888.392 260 911.592 260" style="fill:none;" />
      <path d="M911.592 260 C911.656 260 911.624 280 911.688 280" style="fill:none;" />
      <path d="M911.688 280 C934.776 280 923.232 280 946.32 280" style="fill:none;" />
      <path d="M946.32 280 C946.384 280 946.352 290 946.416 290" style="fill:none;" />
      <path d="M946.416 290 C968.928 290 957.672 290 980.184 290" style="fill:none;" />
      <path d="M980.184 290 C980.856 290 980.52 290 981.192 290" style="fill:none;" />
      <path d="M981.192 290 C1003.896 290 992.544 290 1015.248 290" style="fill:none;" />
      <path d="M1015.248 290 C1015.312 290 1015.28 260 1015.344 260" style="fill:none;" />
      <path d="M1015.344 260 C1038.656 260 1027 260 1050.312 260" style="fill:none;" />
      <path d="M1050.312 260 C1050.376 260 1050.344 280 1050.408 280" style="fill:none;" />
      <path d="M1050.408 280 C1073.016 280 1061.712 280 1084.3201 280" style="fill:none;" />
      <path d="M1084.3201 280 C1084.384 280 1084.3521 290 1084.416 290" style="fill:none;" />
      <path d="M1084.416 290 C1107.1681 290 1095.792 290 1118.5441 290" style="fill:none;" />
      <path d="M1118.5441 290 C1119.8401 290 1119.192 290 1120.488 290" style="fill:none;" />
      <path d="M1120.488 290 C1142.776 290 1131.6321 290 1153.92 290" style="fill:none;" />
      <path d="M1153.92 290 C1153.984 290 1153.952 260 1154.016 260" style="fill:none;" />
      <path d="M1154.016 260 C1175.04 260 1164.528 260 1185.552 260" style="fill:none;" />
      <path d="M1185.552 260 C1187.184 260 1186.368 280 1188 280" style="fill:none;" />
      <path d="M1188 280 C1211.136 280 1199.568 280 1222.704 280" style="fill:none;" />
      <path d="M1222.704 280 C1223.04 280 1222.8719 290 1223.208 290" style="fill:none;" />
      <path d="M1223.208 290 C1245.8 290 1234.504 290 1257.0961 290" style="fill:none;" />
      <path d="M1257.0961 290 C1257.864 290 1257.4801 290 1258.248 290" style="fill:none;" />
      <path d="M1258.248 290 C1280.632 290 1269.4401 290 1291.824 290" style="fill:none;" />
      <path d="M1291.824 290 C1292.032 290 1291.928 260 1292.136 260" style="fill:none;" />
      <path d="M1292.136 260 C1315.208 260 1303.672 260 1326.744 260" style="fill:none;" />
      <path d="M1326.744 260 C1326.808 260 1326.776 280 1326.84 280" style="fill:none;" />
      <path d="M1326.84 280 C1349.848 280 1338.344 280 1361.3521 280" style="fill:none;" />
      <path d="M1361.3521 280 C1361.416 280 1361.384 290 1361.448 290" style="fill:none;" />
      <path d="M1361.448 290 C1383.0961 290 1372.272 290 1393.92 290" style="fill:none;" />
      <path d="M1393.92 290 C1396.1121 290 1395.016 290 1397.208 290" style="fill:none;" />
      <path d="M1397.208 290 C1418.6639 290 1407.936 290 1429.392 290" style="fill:none;" />
      <path d="M1429.392 290 C1430.5439 290 1429.968 240 1431.12 240" style="fill:none;" />
      <path d="M1431.12 240 C1452.832 240 1441.976 240 1463.688 240" style="fill:none;" />
      <path d="M1463.688 240 C1465.224 240 1464.4561 210 1465.9921 210" style="fill:none;" />
      <path d="M1465.9921 210 C1487.656 210 1476.8241 210 1498.488 210" style="fill:none;" />
      <path d="M1498.488 210 C1499.7201 210 1499.104 260 1500.3361 260" style="fill:none;" />
      <path d="M1500.3361 260 C1517.712 260 1509.024 0 1526.4 0" style="fill:none;" />
      <path d="M1526.4 0 C1531.584 0 1528.9921 260 1534.176 260" style="fill:none;" />
      <path d="M1534.176 260 C1534.5599 260 1534.368 240 1534.752 240" style="fill:none;" />
      <path d="M1534.752 240 C1557.84 240 1546.296 240 1569.384 240" style="fill:none;" />
      <path d="M1569.384 240 C1569.448 240 1569.416 260 1569.48 260" style="fill:none;" />
      <path d="M1569.48 260 C1591.656 260 1580.568 260 1602.744 260" style="fill:none;" />
      <path d="M1602.744 260 C1603.48 260 1603.1121 280 1603.848 280" style="fill:none;" />
      <path d="M1603.848 280 C1626.952 280 1615.4 280 1638.504 280" style="fill:none;" />
      <path d="M1638.504 280 C1638.568 280 1638.536 290 1638.6 290" style="fill:none;" />
      <path d="M1638.6 290 C1660.808 290 1649.704 290 1671.912 290" style="fill:none;" />
      <path d="M1671.912 290 C1673.032 290 1672.472 260 1673.592 260" style="fill:none;" />
      <path d="M1673.592 260 C1696.76 260 1685.176 260 1708.344 260" style="fill:none;" />
      <path d="M1708.344 260 C1708.4081 260 1708.376 280 1708.4401 280" style="fill:none;" />
      <path d="M1708.4401 280 C1729.8 280 1719.12 280 1740.48 280" style="fill:none;" />
      <path d="M1740.48 280 C1741.6959 280 1741.088 280 1742.304 280" style="fill:none;" />
      <path d="M1742.304 280 C1765.36 280 1753.832 280 1776.8881 280" style="fill:none;" />
      <path d="M1776.8881 280 C1776.952 280 1776.92 290 1776.984 290" style="fill:none;" />
      <path d="M1776.984 290 C1799.5601 290 1788.272 290 1810.848 290" style="fill:none;" />
      <path d="M1810.848 290 C1811.76 290 1811.3041 290 1812.2161 290" style="fill:none;" />
      <path d="M1812.2161 290 C1834.6 290 1823.4081 290 1845.792 290" style="fill:none;" />
      <path d="M1845.792 290 C1846.288 290 1846.04 260 1846.536 260" style="fill:none;" />
      <path d="M1846.536 260 C1869.032 260 1857.7841 260 1880.28 260" style="fill:none;" />
      <path d="M1880.28 260 C1881.192 260 1880.7361 280 1881.6481 280" style="fill:none;" />
      <path d="M1881.6481 280 C1903.8881 280 1892.7681 280 1915.0081 280" style="fill:none;" />
      <path d="M1915.0081 280 C1915.552 280 1915.28 290 1915.824 290" style="fill:none;" />
      <path d="M1915.824 290 C1938.208 290 1927.016 290 1949.4 290" style="fill:none;" />
      <path d="M1949.4 290 C1973 290 1961.2001 240 1984.8 240" style="fill:none;" />
      <path d="M1984.8 240 C2006.368 240 1995.584 240 2017.152 240" style="fill:none;" />
      <path d="M2017.152 240 C2018.752 240 2017.952 160 2019.552 160" style="fill:none;" />
      <path d="M2019.552 160 C2041.4241 160 2030.488 160 2052.3601 160" style="fill:none;" />
      <path d="M2052.3601 160 C2053.6721 160 2053.0161 170 2054.3281 170" style="fill:none;" />
      <path d="M2054.3281 170 C2067.176 170 2060.7522 0 2073.6001 0" style="fill:none;" />
      <path d="M2073.6001 0 C2083.5042 0 2078.552 170 2088.4561 170" style="fill:none;" />
      <path d="M2088.4561 170 C2088.8721 170 2088.6641 210 2089.0801 210" style="fill:none;" />
      <path d="M2089.0801 210 C2111.3201 210 2100.2 210 2122.4399 210" style="fill:none;" />
      <path d="M2122.4399 210 C2123.1121 210 2122.7759 140 2123.448 140" style="fill:none;" />
      <path d="M2123.448 140 C2145.512 140 2134.48 140 2156.5439 140" style="fill:none;" />
      <path d="M2156.5439 140 C2157.6479 140 2157.0959 160 2158.2 160" style="fill:none;" />
      <path d="M2158.2 160 C2179.928 160 2169.064 160 2190.792 160" style="fill:none;" />
      <path d="M2190.792 160 C2192.1199 160 2191.4561 170 2192.7839 170" style="fill:none;" />
      <path d="M2192.7839 170 C2215.936 170 2204.3599 170 2227.512 170" style="fill:none;" />
      <path d="M2227.512 170 C2227.9438 170 2227.728 210 2228.1599 210" style="fill:none;" />
      <path d="M2228.1599 210 C2249.3281 210 2238.7439 210 2259.9121 210" style="fill:none;" />
      <path d="M2259.9121 210 C2261.2561 210 2260.584 140 2261.928 140" style="fill:none;" />
      <path d="M2261.928 140 C2283.624 140 2272.7759 140 2294.4719 140" style="fill:none;" />
      <path d="M2294.4719 140 C2295.7839 140 2295.1279 160 2296.4399 160" style="fill:none;" />
      <path d="M2296.4399 160 C2316.856 160 2306.6479 160 2327.064 160" style="fill:none;" />
      <path d="M2327.064 160 C2329.7681 160 2328.416 170 2331.1201 170" style="fill:none;" />
      <path d="M2331.1201 170 C2352.1282 170 2341.624 170 2362.6321 170" style="fill:none;" />
      <path d="M2362.6321 170 C2365.1602 170 2363.896 210 2366.4241 210" style="fill:none;" />
      <path d="M2366.4241 210 C2385.2561 210 2375.8401 210 2394.6721 210" style="fill:none;" />
      <path d="M2394.6721 210 C2394.752 210 2394.7122 240 2394.792 240" style="fill:none;" />
      <path d="M2394.792 240 C2398.04 240 2396.416 240 2399.6641 240" style="fill:none;" />
      <path d="M2399.6641 240 C2400.448 240 2400.0562 140 2400.8401 140" style="fill:none;" />
      <path d="M2400.8401 140 C2422.552 140 2411.696 140 2433.408 140" style="fill:none;" />
      <path d="M2433.408 140 C2434.4639 140 2433.936 160 2434.9919 160" style="fill:none;" />
      <path d="M2434.9919 160 C2455.76 160 2445.376 160 2466.144 160" style="fill:none;" />
      <path d="M2466.144 160 C2468.512 160 2467.3281 170 2469.696 170" style="fill:none;" />
      <path d="M2469.696 170 C2490.96 170 2480.3281 170 2501.592 170" style="fill:none;" />
      <path d="M2501.592 170 C2503.064 170 2502.3281 210 2503.8 210" style="fill:none;" />
      <path d="M2503.8 210 C2526.6479 210 2515.2241 210 2538.072 210" style="fill:none;" />
      <path d="M2538.072 210 C2538.7441 210 2538.408 140 2539.0801 140" style="fill:none;" />
      <path d="M2539.0801 140 C2560.792 140 2549.936 140 2571.6479 140" style="fill:none;" />
      <path d="M2571.6479 140 C2572.8159 140 2572.2319 160 2573.3999 160" style="fill:none;" />
      <path d="M2573.3999 160 C2595.2561 160 2584.3279 160 2606.1841 160" style="fill:none;" />
      <path d="M2606.1841 160 C2607.7839 160 2606.9841 170 2608.584 170" style="fill:none;" />
      <path d="M2608.584 170 C2629.9919 170 2619.2881 170 2640.696 170" style="fill:none;" />
      <path d="M2640.696 170 C2641.8 170 2641.248 210 2642.3521 210" style="fill:none;" />
      <path d="M2642.3521 210 C2665.2639 210 2653.8081 210 2676.72 210" style="fill:none;" />
      <path d="M2676.72 210 C2677.2319 210 2676.9761 140 2677.488 140" style="fill:none;" />
      <path d="M2677.488 140 C2699.2642 140 2688.376 140 2710.1521 140" style="fill:none;" />
      <path d="M2710.1521 140 C2711.3999 140 2710.7761 160 2712.0239 160" style="fill:none;" />
      <path d="M2712.0239 160 C2733.688 160 2722.856 160 2744.52 160" style="fill:none;" />
      <path d="M2744.52 160 C2746.0242 160 2745.272 170 2746.7761 170" style="fill:none;" />
      <path d="M2746.7761 170 C2768.2959 170 2757.5361 170 2779.0559 170" style="fill:none;" />
      <path d="M2779.0559 170 C2780.384 170 2779.72 210 2781.0481 210" style="fill:none;" />
      <path d="M2781.0481 210 C2803.1279 210 2792.0881 210 2814.168 210" style="fill:none;" />
      <path d="M2814.168 210 C2815.3201 210 2814.7439 140 2815.896 140" style="fill:none;" />
      <path d="M2815.896 140 C2837.3201 140 2826.6079 140 2848.032 140" style="fill:none;" />
      <path d="M2848.032 140 C2849.616 140 2848.824 160 2850.408 160" style="fill:none;" />
      <path d="M2850.408 160 C2872.1519 160 2861.28 160 2883.0239 160" style="fill:none;" />
      <path d="M2883.0239 160 C2884.5601 160 2883.792 170 2885.3281 170" style="fill:none;" />
      <path d="M2885.3281 170 C2907.2322 170 2896.28 170 2918.1841 170" style="fill:none;" />
      <path d="M2918.1841 170 C2919.4641 170 2918.824 210 2920.104 210" style="fill:none;" />
      <path d="M2920.104 210 C2941.9441 210 2931.0239 210 2952.864 210" style="fill:none;" />
      <path d="M2952.864 210 C2954.0161 210 2953.4399 140 2954.592 140" style="fill:none;" />
      <path d="M2954.592 140 C2976.2241 140 2965.408 140 2987.04 140" style="fill:none;" />
      <path d="M2987.04 140 C2988.3679 140 2987.7041 160 2989.032 160" style="fill:none;" />
      <path d="M2989.032 160 C3010.9839 160 3000.0081 160 3021.96 160" style="fill:none;" />
      <path d="M3021.96 160 C3022.9202 160 3022.4399 170 3023.4001 170" style="fill:none;" />
      <path d="M3023.4001 170 C3044.856 170 3034.1282 170 3055.584 170" style="fill:none;" />
      <path d="M3055.584 170 C3057.6641 170 3056.624 210 3058.7041 210" style="fill:none;" />
      <path d="M3058.7041 210 C3078.4001 210 3068.552 210 3088.248 210" style="fill:none;" />
      <path d="M3088.248 210 C3091.3679 210 3089.8081 140 3092.928 140" style="fill:none;" />
      <path d="M3092.928 140 C3113.824 140 3103.376 140 3124.272 140" style="fill:none;" />
      <path d="M3124.272 140 C3126.3201 140 3125.2959 160 3127.344 160" style="fill:none;" />
      <path d="M3127.344 160 C3149.2642 160 3138.304 160 3160.2241 160" style="fill:none;" />
      <path d="M3160.2241 160 C3161.8721 160 3161.0481 170 3162.696 170" style="fill:none;" />
      <path d="M3162.696 170 C3183.7681 170 3173.2319 170 3194.304 170" style="fill:none;" />
      <path d="M3194.304 170 C3195.936 170 3195.1199 210 3196.752 210" style="fill:none;" />
      <path d="M3196.752 210 C3219.072 210 3207.9119 210 3230.2319 210" style="fill:none;" />
      <path d="M3230.2319 210 C3231.2561 210 3230.7439 140 3231.7681 140" style="fill:none;" />
      <path d="M3231.7681 140 C3253.7361 140 3242.752 140 3264.72 140" style="fill:none;" />
      <path d="M3264.72 140 C3265.8879 140 3265.304 160 3266.4719 160" style="fill:none;" />
      <path d="M3266.4719 160 C3288.312 160 3277.3918 160 3299.2319 160" style="fill:none;" />
      <path d="M3299.2319 160 C3300.4958 160 3299.864 170 3301.1279 170" style="fill:none;" />
      <path d="M3301.1279 170 C3322.7761 170 3311.9519 170 3333.6001 170" style="fill:none;" />
      <path d="M3333.6001 170 C3334.9919 170 3334.2961 210 3335.688 210" style="fill:none;" />
      <path d="M3335.688 210 C3357.512 210 3346.6001 210 3368.4241 210" style="fill:none;" />
      <path d="M3368.4241 210 C3369.48 210 3368.9521 140 3370.0081 140" style="fill:none;" />
      <path d="M3370.0081 140 C3391.9922 140 3381 140 3402.9841 140" style="fill:none;" />
      <path d="M3402.9841 140 C3404.168 140 3403.5762 160 3404.76 160" style="fill:none;" />
      <path d="M3404.76 160 C3426.8882 160 3415.824 160 3437.9521 160" style="fill:none;" />
      <path d="M3437.9521 160 C3439.136 160 3438.5442 170 3439.728 170" style="fill:none;" />
      <path d="M3439.728 170 C3461.584 170 3450.656 170 3472.512 170" style="fill:none;" />
      <path d="M3472.512 170 C3473.5361 170 3473.0239 210 3474.0481 210" style="fill:none;" />
      <path d="M3474.0481 210 C3496.2241 210 3485.136 210 3507.312 210" style="fill:none;" />
      <path d="M3507.312 210 C3508.1599 210 3507.7361 140 3508.584 140" style="fill:none;" />
      <path d="M3508.584 140 C3530.3921 140 3519.488 140 3541.2961 140" style="fill:none;" />
      <path d="M3541.2961 140 C3542.5762 140 3541.936 160 3543.2161 160" style="fill:none;" />
      <path d="M3543.2161 160 C3565.1841 160 3554.2 160 3576.168 160" style="fill:none;" />
      <path d="M3576.168 160 C3577.2239 160 3576.696 170 3577.752 170" style="fill:none;" />
      <path d="M3577.752 170 C3599.5759 170 3588.6641 170 3610.488 170" style="fill:none;" />
      <path d="M3610.488 170 C3611.6719 170 3611.0801 210 3612.2639 210" style="fill:none;" />
      <path d="M3612.2639 210 C3635.512 210 3623.8879 210 3647.136 210" style="fill:none;" />
      <path d="M3647.136 210 C3657.0081 210 3652.072 140 3661.9441 140" style="fill:none;" />
      <path d="M3661.9441 140 C3663.0962 140 3662.52 140 3663.6721 140" style="fill:none;" />
      <path d="M3663.6721 140 C3754.376 140 3709.0242 140 3799.728 140" style="fill:none;" />
      <path d="M3799.728 140 C3800.7839 140 3800.2561 140 3801.312 140" style="fill:none;" />
      <path d="M3801.312 140 C3892.9119 140 3847.1121 140 3938.7119 140" style="fill:none;" />
      <path d="M3938.7119 140 C3939.4958 140 3939.104 140 3939.8879 140" style="fill:none;" />
      <path d="M3939.8879 140 C4031.376 140 3985.6321 140 4077.1201 140" style="fill:none;" />
      <path d="M4077.1201 140 C4078.7361 140 4077.928 140 4079.5439 140" style="fill:none;" />
      <path d="M4079.5439 140 C4148.8081 140 4114.1758 170 4183.4399 170" style="fill:none;" />
      <path d="M4183.4399 170 C4194.9761 170 4189.208 170 4200.7441 170" style="fill:none;" />
      <path d="M4200.7441 170 C4200.8081 170 4200.7759 210 4200.8398 210" style="fill:none;" />
      <path d="M4200.8398 210 C4224.168 210 4212.5039 210 4235.832 210" style="fill:none;" />
      <path d="M4235.832 210 C4235.832 210 4235.832 900 4235.832 900" style="fill:none;" />
    </g>
  </g>
</svg>
