<?xml version="1.0" encoding="UTF-8" standalone="no"?>
<svg width="155px" height="134px" viewBox="0 0 155 134" version="1.1" xmlns="http://www.w3.org/2000/svg" xmlns:xlink="http://www.w3.org/1999/xlink" xmlns:sketch="http://www.bohemiancoding.com/sketch/ns">
  <g fill="#000000">
    <path d="M0.043,11.865 L0.043,-0.371 L13.117,-0.371 L13.117,11.865 L0.043,11.865 L0.043,11.865 Z M0.043,98.651 L-0.219,22.539 L12.855,22.539 L13.117,98.651 L0.043,98.651 L0.043,98.651 Z" id="Shape" sketch:type="MSShapeGroup"></path>
    <path d="M34.931,120.127 L53.647,120.127 C66.446,120.127 70.711,116.593 70.711,102.181 L70.711,96.607 C66.308,98.512 60.665,99.463 53.647,99.463 C31.904,99.463 23.508,90.76 23.508,69.142 L23.247,47.315 C23.247,26.243 34.807,18.763 53.385,18.763 C71.963,18.763 83.524,26.242 83.524,47.315 L83.785,102.181 C83.785,125.838 75.39,132.5 53.647,132.5 L34.931,132.5 L34.931,120.127 L34.931,120.127 Z M70.711,69.142 L70.45,47.315 C70.45,32.903 65.083,30.729 53.385,30.729 C41.688,30.729 36.321,32.903 36.321,47.315 L36.582,69.142 C36.582,83.554 41.949,87.091 53.646,87.091 C65.343,87.091 70.711,83.554 70.711,69.142 L70.711,69.142 Z" id="Shape" sketch:type="MSShapeGroup"></path>
    <path d="M153.866,70.91 C153.866,92.525 145.471,100.82 123.728,100.82 C101.985,100.82 93.589,92.119 93.589,70.501 L93.589,47.932 C93.589,26.86 105.15,18.972 123.728,18.972 C142.306,18.972 153.866,27.811 153.866,48.883 L140.79,48.883 C140.79,34.471 135.422,30.939 123.728,30.939 C112.029,30.939 106.662,33.52 106.662,47.932 L106.662,70.501 C106.662,84.912 112.03,88.448 123.728,88.448 C135.423,88.448 140.79,85.32 140.79,70.91 L153.866,70.91 L153.866,70.91 Z" id="Shape" sketch:type="MSShapeGroup"></path>
    </g>
</svg>
